# xmcd
#
# Track frame offsets:
#	150
#	11801
#	31325
#	52224
#	63211
#	77179
#	92664
#	106601
#	118370
#	134084
#	149173
#	166671
#	186272
#	199414
#	217754
#	233247
#	254121
#	269784
#	284510
#	299200
#	316628
#	334926
#
# Disc length: 4619 seconds
#
# Revision: 0
# Processed by: cddbd v1.5.2PL0 Copyright (c) Steve Scherf et al.
# Submitted via: audiograbber 1.83.01
#
DISCID=6a120916
DTITLE=Diversen - Ik hou van Hollands
DYEAR=1900
DGENRE=
TTITLE0=Peter Koelewijn - Kom van dat dak af
TTITLE1=Rob de Nijs - Banger hart
TTITLE2=Gordon - Kon ik maar even bij je zijn
TTITLE3=Kinderen voor Kinderen - Waanzinnig gedroomd
TTITLE4=Hetty Blok and Leen Jongewaard - M'n opa
TTITLE5=The Shorts - Comment Ca Va
TTITLE6=Willy and Willeke Alberti - Niemand laat zijn eigen kind alleen
TTITLE7=Maxine and Franklin Brown - De eerste keer
TTITLE8=Imca Marina - Viva Espana
TTITLE9=Ramses Shaffy - Wij zullen doorgaan
TTITLE10=Drukwerk - Schijn 'n lichtje op mij
TTITLE11=Sandy Coast - The eyes of Jenny
TTITLE12=Luv - U.O.Me
TTITLE13=Het Goede Doel - Vriendschap
TTITLE14=Klein Orkest - Over de muur
TTITLE15=Arne Jansen - Meisjes met rode haren
TTITLE16=Earth and Fire - Weekend
TTITLE17=Koos Alberts - Zijn het je ogen
TTITLE18=Vanessa - Upside down
TTITLE19=Veldhuis and Kemper - Ik wou dat ik jou was
TTITLE20=Hermes House Band - I will survive
TTITLE21=Wim sonneveld - Aan de Amsterdamse grachten
EXTD=
EXTT0=
EXTT1=
EXTT2=
EXTT3=
EXTT4=
EXTT5=
EXTT6=
EXTT7=
EXTT8=
EXTT9=
EXTT10=
EXTT11=
EXTT12=
EXTT13=
EXTT14=
EXTT15=
EXTT16=
EXTT17=
EXTT18=
EXTT19=
EXTT20=
EXTT21=
PLAYORDER=
